<svg width="360" height="380" viewBox="0 0 360 380" fill="none" xmlns="http://www.w3.org/2000/svg">
<path d="M313.325 230.694C315.684 247.094 304.303 262.301 287.903 264.661C271.503 267.021 256.296 255.639 253.936 239.239C251.577 222.84 262.958 207.632 279.358 205.273C295.758 202.913 310.965 214.295 313.325 230.694Z" fill="#FFC800"/>
<path d="M158.664 35C213.892 35 258.664 79.7715 258.664 135C258.664 190.228 213.892 235 158.664 235C103.435 235 58.6637 190.228 58.6637 135C58.6637 79.7715 103.435 35 158.664 35ZM158.664 85C131.049 85 108.664 107.386 108.664 135C108.664 162.614 131.049 185 158.664 185C186.278 185 208.664 162.614 208.664 135C208.664 107.386 186.278 85 158.664 85Z" fill="#354334"/>
<path d="M222.116 256.477C237.093 258.712 247.422 272.666 245.187 287.643C244.261 293.849 241.321 299.254 237.133 303.301C214.147 333.556 175.8 350.671 135.568 344.667C95.3315 338.661 63.6494 311.089 50.5025 275.434C48.7129 272.204 47.5643 268.597 47.2005 264.808C47.1329 264.542 47.0656 264.276 47 264.01C47.0526 264.144 47.109 264.276 47.1635 264.408C46.9968 262.353 47.0607 260.246 47.3782 258.119C49.6137 243.142 63.5674 232.812 78.5448 235.048C90.9894 236.905 100.223 246.853 101.708 258.756C108.676 275.667 124.1 288.596 143.505 291.492C162.914 294.389 181.44 286.521 193.042 272.376C197.941 261.432 209.675 254.62 222.116 256.477Z" fill="#4A5E48"/>
</svg>
